<?xml version="1.0" standalone="no"?>
<!DOCTYPE svg PUBLIC "-//W3C//DTD SVG 20010904//EN"
 "http://www.w3.org/TR/2001/REC-SVG-20010904/DTD/svg10.dtd">
<svg version="1.0" xmlns="http://www.w3.org/2000/svg"
 width="700.000000pt" height="700.000000pt" viewBox="0 0 700.000000 700.000000"
 preserveAspectRatio="xMidYMid meet">
<metadata>
Created by potrace 1.11, written by Peter Selinger 2001-2013
</metadata>
<g transform="translate(0.000000,700.000000) scale(0.100000,-0.100000)"
fill="#000000" stroke="none">
<path d="M3268 6995 c-2 -2 -37 -6 -78 -9 -119 -11 -230 -24 -260 -31 -3 -1
-30 -5 -60 -9 -77 -10 -358 -80 -466 -115 -118 -38 -256 -93 -372 -147 -52
-24 -95 -44 -97 -44 -8 0 -247 -138 -298 -171 -32 -22 -60 -39 -63 -39 -2 0
-55 -37 -117 -81 -440 -320 -763 -683 -1030 -1161 -68 -123 -161 -322 -209
-452 -30 -81 -95 -283 -103 -321 -8 -33 -15 -64 -19 -82 -9 -38 -36 -164 -41
-195 -3 -18 -10 -58 -15 -88 -5 -30 -13 -86 -16 -125 -3 -38 -10 -101 -14
-140 -8 -77 -5 -527 4 -590 3 -22 8 -67 11 -100 16 -179 80 -471 144 -660 22
-66 43 -127 45 -135 14 -51 88 -219 155 -351 74 -147 188 -339 269 -452 116
-163 281 -357 410 -480 116 -111 127 -122 182 -167 30 -25 57 -47 60 -50 37
-41 372 -267 505 -340 265 -147 614 -285 843 -335 84 -18 214 -45 242 -49 247
-40 369 -49 615 -49 443 0 833 70 1238 223 115 43 339 146 377 173 13 9 28 17
33 17 16 0 263 154 367 228 375 269 702 614 936 991 47 75 172 298 183 326 2
5 22 48 44 95 96 207 216 588 242 770 3 25 8 52 10 60 39 142 61 625 40 885
-12 144 -46 374 -72 485 -8 36 -17 76 -20 90 -2 14 -10 43 -17 65 -8 22 -22
69 -32 105 -69 252 -235 606 -412 875 -367 557 -830 962 -1432 1252 -213 102
-520 209 -710 247 -217 43 -298 55 -465 72 -64 6 -531 14 -537 9z m497 -588
c17 -3 55 -7 85 -11 893 -115 1697 -646 2142 -1416 195 -338 339 -746 373
-1060 4 -30 8 -61 11 -68 7 -22 17 -231 17 -347 0 -142 -8 -262 -28 -405 -14
-99 -23 -147 -51 -265 -3 -11 -7 -31 -10 -44 -10 -50 -68 -222 -115 -341 -205
-523 -570 -990 -1026 -1313 -146 -103 -409 -245 -588 -317 -44 -17 -89 -36
-100 -40 -62 -27 -330 -102 -445 -125 -623 -122 -1310 -19 -1875 280 -159 84
-194 105 -295 173 -262 179 -454 356 -643 594 -279 351 -506 843 -582 1258 -4
19 -8 42 -10 50 -2 8 -6 40 -10 70 -4 30 -9 66 -11 80 -18 102 -24 446 -11
605 66 774 474 1534 1082 2016 347 275 789 484 1213 573 64 14 140 28 167 31
28 4 61 8 75 11 14 2 63 7 110 10 47 4 86 8 88 9 5 4 401 -4 437 -8z"/>
<path d="M2245 5253 c-255 -32 -473 -246 -511 -503 -53 -358 223 -682 581
-681 92 0 98 0 175 21 195 52 367 235 414 440 19 87 14 226 -13 310 -43 135
-150 269 -274 340 -99 57 -254 87 -372 73z"/>
<path d="M4549 5249 c-67 -9 -168 -48 -225 -87 -100 -66 -169 -146 -219 -254
-154 -335 27 -718 390 -823 106 -30 248 -23 361 20 321 121 473 494 330 808
-89 194 -293 332 -506 341 -41 2 -100 0 -131 -5z"/>
<path d="M2051 3069 c-99 -19 -182 -88 -218 -180 -35 -92 -20 -182 64 -378
125 -291 326 -536 598 -727 38 -27 79 -54 90 -60 11 -6 54 -29 97 -51 161 -86
386 -159 551 -178 17 -2 59 -6 92 -10 62 -7 237 -8 315 -1 72 6 154 16 170 21
8 2 30 7 49 10 58 10 173 44 254 75 275 106 533 290 720 515 166 199 330 541
330 686 0 62 -33 145 -74 190 -96 104 -247 123 -371 47 -60 -37 -97 -90 -132
-188 -104 -289 -290 -505 -559 -649 -76 -40 -220 -94 -282 -106 -254 -47 -484
-27 -694 58 -200 83 -404 245 -519 414 -51 75 -106 185 -139 276 -26 73 -55
130 -83 158 -63 64 -165 95 -259 78z"/>
</g>
</svg>
